<svg xmlns="http://www.w3.org/2000/svg" viewBox="0 0 345.6 345.6">
<path d="M263.3 9.6c-6-6-14.1-9.4-22.6-9.4h-136V0c-8.5 0-16.6 3.4-22.6 9.4 -6 6-9.4 14.1-9.4 22.6v285.8c-0.1 7 2.1 13.8 6.4 19.4 6 7.7 16.5 10.5 25.6 6.8 8-3.5 14.6-9.5 18.9-17.2l49.1-78.3 49.1 78.3c4.3 7.6 10.9 13.7 18.9 17.2 9.1 3.7 19.6 0.9 25.7-6.8 4.3-5.5 6.5-12.4 6.3-19.4V32C272.7 23.6 269.3 15.5 263.3 9.6zM253.6 326.9c-0.8 1-1.9 1.8-3.1 2.2 -1.3 0.3-2.7 0.2-4-0.4 -4.7-2.2-8.5-5.9-11-10.4l-56-89.2c-0.7-1.1-1.6-2.1-2.7-2.7 -3.8-2.3-8.7-1-11 2.7l-56 89.1c-2.4 4.6-6.2 8.3-10.9 10.6 -1.3 0.5-2.7 0.7-4 0.4 -1.2-0.4-2.3-1.2-3.1-2.2 -1.9-2.7-2.9-5.9-2.7-9.2V32c0.1-8.7 7.1-15.7 15.8-15.8h68 68c8.6 0.2 15.5 7.2 15.5 15.8v285.7C256.5 321 255.5 324.2 253.6 326.9z"/></svg>